<?xml version="1.0" encoding="UTF-8" standalone="no"?>
<!-- Created with Inkscape (http://www.inkscape.org/) -->

<svg
   width="100mm"
   height="100mm"
   viewBox="0 0 100 100"
   version="1.1"
   id="svg1"
   inkscape:version="1.4.2 (ebf0e940d0, 2025-05-08)"
   sodipodi:docname="placeholder.svg"
   xmlns:inkscape="http://www.inkscape.org/namespaces/inkscape"
   xmlns:sodipodi="http://sodipodi.sourceforge.net/DTD/sodipodi-0.dtd"
   xmlns="http://www.w3.org/2000/svg"
   xmlns:svg="http://www.w3.org/2000/svg">
  <sodipodi:namedview
     id="namedview1"
     pagecolor="#505050"
     bordercolor="#ffffff"
     borderopacity="1"
     inkscape:showpageshadow="0"
     inkscape:pageopacity="0"
     inkscape:pagecheckerboard="1"
     inkscape:deskcolor="#505050"
     inkscape:document-units="mm"
     inkscape:zoom="1.4556538"
     inkscape:cx="226.35877"
     inkscape:cy="143.23461"
     inkscape:window-width="1874"
     inkscape:window-height="986"
     inkscape:window-x="0"
     inkscape:window-y="0"
     inkscape:window-maximized="1"
     inkscape:current-layer="layer1" />
  <defs
     id="defs1" />
  <g
     inkscape:label="Layer 1"
     inkscape:groupmode="layer"
     id="layer1">
    <path
       sodipodi:type="star"
       style="fill:#d7adb2;stroke:none;stroke-width:10"
       id="path2"
       inkscape:flatsided="false"
       sodipodi:sides="10"
       sodipodi:cx="31.360229"
       sodipodi:cy="35.473045"
       sodipodi:r1="23.118881"
       sodipodi:r2="11.55944"
       sodipodi:arg1="0.84046056"
       sodipodi:arg2="1.1546198"
       inkscape:rounded="0"
       inkscape:randomized="1.5"
       d="M 70.091896,48.194751 53.836959,32.220991 22.825839,81.608728 22.1185,74.211688 -6.1253751,69.471142 28.974813,41.317978 22.116929,32.448044 51.926653,21.120451 21.944614,51.937385 11.85036,9.0631762 4.2977494,8.2407292 7.6758885,-3.0755786 3.7262354,32.14121 39.395463,31.96987 67.639338,36.710416 28.800182,32.851111 73.719292,-1.7258506 12.183044,13.528493 73.962989,54.133051 45.924636,65.105913 Z"
       inkscape:transform-center-x="-2.5585775"
       inkscape:transform-center-y="3.793529"
       transform="translate(16.451268,10.282042)" />
    <path
       style="font-weight:bold;font-size:14.4112px;-inkscape-font-specification:'sans-serif Bold';fill:#ffffff;stroke:#000000;stroke-width:0.8"
       d="m 14.458077,-9.0312378 h 4.496463 q 2.005465,0 3.075046,0.8936633 1.076618,0.8866265 1.076618,2.5332187 0,1.6536288 -1.076618,2.5472921 -1.069581,0.8866265 -3.075046,0.8866265 H 17.167214 V 1.474583 h -2.709137 z m 2.709137,1.9632445 v 2.9343117 h 1.498821 q 0.788112,0 1.217352,-0.3799828 0.42924,-0.3870196 0.42924,-1.0906914 0,-0.7036719 -0.42924,-1.0836547 -0.42924,-0.3799828 -1.217352,-0.3799828 z m 7.852978,-1.9632445 h 2.709136 v 8.45813573 H 32.48615 V 1.474583 h -7.465958 z m 15.558185,8.59183339 H 36.342273 L 35.673784,1.474583 h -2.72321 L 36.84188,-9.0312378 h 3.229853 L 43.963039,1.474583 h -2.72321 z M 37.017798,-2.3885754 h 2.878017 l -1.43549,-4.1798109 z m 16.669985,3.28614751 q -0.745892,0.38701949 -1.555115,0.58404759 -0.809222,0.1970282 -1.688812,0.1970282 -2.624696,0 -4.158701,-1.46363749 -1.534004,-1.47067421 -1.534004,-3.98278271 0,-2.5191452 1.534004,-3.9827827 1.534005,-1.4706742 4.158701,-1.4706742 0.87959,0 1.688812,0.1970282 0.809223,0.1970281 1.555115,0.5840476 v 2.174346 q -0.752929,-0.5136804 -1.484747,-0.7529288 -0.731819,-0.2392485 -1.541042,-0.2392485 -1.449564,0 -2.279897,0.9288469 -0.830332,0.9288468 -0.830332,2.5613655 0,1.625482 0.830332,2.5543288 0.830333,0.92884689 2.279897,0.92884689 0.809223,0 1.541042,-0.23924843 0.731818,-0.23924843 1.484747,-0.75292886 z m 2.244713,-9.92880991 h 7.31115 v 2.0476851 h -4.602014 v 1.9562078 h 4.327582 v 2.0476851 h -4.327582 v 2.40655773 h 4.756822 V 1.474583 h -7.465958 z m 9.844368,0 H 68.486 v 4.0038929 h 3.996856 v -4.0038929 h 2.709137 V 1.474583 H 72.482856 V -2.9796598 H 68.486 V 1.474583 h -2.709136 z m 16.859978,1.7732531 q -1.238463,0 -1.921025,0.9147734 -0.682561,0.9147734 -0.682561,2.575439 0,1.6536289 0.682561,2.5684023 0.682562,0.91477339 1.921025,0.91477339 1.245499,0 1.92806,-0.91477339 0.682562,-0.9147734 0.682562,-2.5684023 0,-1.6606656 -0.682562,-2.575439 -0.682561,-0.9147734 -1.92806,-0.9147734 z m 0,-1.9632445 q 2.533218,0 3.968709,1.4495641 1.43549,1.449564 1.43549,4.0038928 0,2.5472921 -1.43549,3.99685615 -1.435491,1.44956405 -3.968709,1.44956405 -2.526182,0 -3.96871,-1.44956405 -1.43549,-1.44956405 -1.43549,-3.99685615 0,-2.5543288 1.43549,-4.0038928 1.442528,-1.4495641 3.96871,-1.4495641 z m 7.451888,0.1899914 h 2.709137 v 8.45813573 h 4.756822 V 1.474583 H 90.08873 Z m 11.89205,2.0476851 v 6.41045063 h 0.97107 q 1.66066,0 2.53322,-0.82329603 0.87959,-0.8232961 0.87959,-2.3924843 0,-1.5621516 -0.87256,-2.3784109 -0.87255,-0.8162594 -2.54025,-0.8162594 z m -2.709135,-2.0476851 h 2.856905 q 2.39249,0 3.56058,0.3447993 1.17513,0.3377624 2.0125,1.1540218 0.73886,0.7107086 1.09773,1.6395554 0.35887,0.9288469 0.35887,2.1039789 0,1.1892054 -0.35887,2.125089 -0.35887,0.92884681 -1.09773,1.63955538 -0.8444,0.81625935 -2.02657,1.16105852 -1.18217,0.3377625 -3.54651,0.3377625 h -2.856905 z m 11.962425,0 h 7.31115 v 2.0476851 h -4.60201 v 1.9562078 h 4.32758 v 2.0476851 h -4.32758 v 2.40655773 h 4.75682 V 1.474583 h -7.46596 z m 13.69345,4.6583077 q 0.85145,0 1.21736,-0.3166523 0.37294,-0.3166523 0.37294,-1.0414344 0,-0.7177452 -0.37294,-1.0273609 -0.36591,-0.3096156 -1.21736,-0.3096156 h -1.13995 v 2.6950632 z m -1.13995,1.8717672 V 1.474583 h -2.70913 V -9.0312378 h 4.13759 q 2.07583,0 3.03986,0.6966352 0.97107,0.6966351 0.97107,2.2024929 0,1.0414343 -0.50665,1.7099226 -0.4996,0.6684883 -1.51289,0.9851406 0.5559,0.1266609 0.99218,0.5770109 0.44331,0.4433133 0.89366,1.35105 l 1.47067,2.9835686 h -2.88505 l -1.28068,-2.6106225 q -0.38702,-0.7881125 -0.78812,-1.076618 -0.39405,-0.2885054 -1.0555,-0.2885054 z"
       id="text1"
       inkscape:transform-center-x="-34.868423"
       inkscape:transform-center-y="37.247432"
       aria-label="PLACEHOLDER"
       transform="matrix(0.67625386,0.73828113,-0.71394529,0.69930494,0,0)" />
  </g>
</svg>
