<?xml version="1.0" encoding="UTF-8" standalone="no"?>
<!-- Created with Inkscape (http://www.inkscape.org/) -->

<svg
   width="1153.0919"
   height="41.045788"
   viewBox="0 0 305.08889 10.860031"
   version="1.1"
   id="svg1"
   xml:space="preserve"
   inkscape:version="1.4 (86a8ad7, 2024-10-11)"
   sodipodi:docname="baking_sheet.svg"
   xmlns:inkscape="http://www.inkscape.org/namespaces/inkscape"
   xmlns:sodipodi="http://sodipodi.sourceforge.net/DTD/sodipodi-0.dtd"
   xmlns="http://www.w3.org/2000/svg"
   xmlns:svg="http://www.w3.org/2000/svg"><sodipodi:namedview
     id="namedview1"
     pagecolor="#505050"
     bordercolor="#eeeeee"
     borderopacity="1"
     inkscape:showpageshadow="0"
     inkscape:pageopacity="0"
     inkscape:pagecheckerboard="0"
     inkscape:deskcolor="#505050"
     inkscape:document-units="px"
     inkscape:zoom="0.7779613"
     inkscape:cx="834.87443"
     inkscape:cy="-85.47983"
     inkscape:window-width="2560"
     inkscape:window-height="1494"
     inkscape:window-x="-11"
     inkscape:window-y="-11"
     inkscape:window-maximized="1"
     inkscape:current-layer="layer1" /><defs
     id="defs1" /><g
     inkscape:label="Layer 1"
     inkscape:groupmode="layer"
     id="layer1"
     transform="translate(-3.2563991,2.9771266)"><path
       style="fill:#3e3a34;fill-opacity:1;stroke:#2e1c18;stroke-width:0.786601;stroke-linecap:round;stroke-miterlimit:12.9;stroke-opacity:1"
       d="m 302.46714,7.4870287 c 1.20158,0.1202462 5.10214,-6.1045437 5.43712,-7.87612691 0.33498,-1.77158299 -1.06199,-2.54239839 -2.37311,-1.98406239 -1.41184,0.6012309 -5.85766,4.9902179 -6.51852,5.2607718 -0.66087,0.2705539 -140.24091,-0.1962884 -140.24091,-0.1962884 0,0 -145.514939,0.4349929 -146.176275,0.1644464 C 11.934109,2.5852227 7.4851213,-1.8036439 6.0722673,-2.4048583 4.7602137,-2.963179 3.362253,-2.1923848 3.6974696,-0.42085032 4.0326862,1.3506842 7.9360322,7.5753035 9.1384613,7.4550606 10.340891,7.3348176 158.80191,7.2756466 158.80191,7.2756466 c 0,0 142.46366,0.091136 143.66523,0.2113821 z"
       id="path2"
       sodipodi:nodetypes="szsscsszscs" /></g></svg>
