<?xml version="1.0" encoding="UTF-8" standalone="no"?>
<!-- Created with Inkscape (http://www.inkscape.org/) -->

<svg
   width="512"
   height="512"
   viewBox="0 0 135.46666 135.46667"
   version="1.1"
   id="svg1"
   inkscape:version="1.4 (86a8ad7, 2024-10-11)"
   sodipodi:docname="sun.svg"
   xmlns:inkscape="http://www.inkscape.org/namespaces/inkscape"
   xmlns:sodipodi="http://sodipodi.sourceforge.net/DTD/sodipodi-0.dtd"
   xmlns="http://www.w3.org/2000/svg"
   xmlns:svg="http://www.w3.org/2000/svg">
  <sodipodi:namedview
     id="namedview1"
     pagecolor="#505050"
     bordercolor="#eeeeee"
     borderopacity="1"
     inkscape:showpageshadow="0"
     inkscape:pageopacity="0"
     inkscape:pagecheckerboard="0"
     inkscape:deskcolor="#505050"
     inkscape:document-units="px"
     inkscape:zoom="1.352756"
     inkscape:cx="121.6036"
     inkscape:cy="291.62686"
     inkscape:window-width="2560"
     inkscape:window-height="1494"
     inkscape:window-x="-11"
     inkscape:window-y="-11"
     inkscape:window-maximized="1"
     inkscape:current-layer="layer1" />
  <defs
     id="defs1" />
  <g
     inkscape:label="Layer 1"
     inkscape:groupmode="layer"
     id="layer1">
    <path
       style="fill:#ffb41a;stroke-width:0.437092;stroke-linecap:square;stroke-miterlimit:12.9;fill-opacity:1"
       d="M 66.967718,2.9832662 C 72.723613,23.358945 85.708387,27.199185 85.291604,29.426893 84.368283,34.36206 43.824353,35.403498 50.91086,31.167148 60.684682,25.324307 64.551569,12.40834 66.967718,2.9832662 Z"
       id="path2"
       sodipodi:nodetypes="cssc" />
    <path
       style="fill:#ffb41a;stroke-width:0.437092;stroke-linecap:square;stroke-miterlimit:12.9;fill-opacity:1"
       d="M 115.2037,22.192002 C 103.02056,39.508743 108.22898,52.007714 106.23727,53.089138 101.82492,55.484891 75.448027,24.676553 83.204793,27.504594 93.90305,31.405073 106.36542,26.260728 115.2037,22.192002 Z"
       id="path3"
       sodipodi:nodetypes="cssc" />
    <path
       style="fill:#ffb41a;stroke-width:0.437092;stroke-linecap:square;stroke-miterlimit:12.9;fill-opacity:1"
       d="m 131.60567,69.435435 c -20.96957,2.928389 -26.54179,15.26947 -28.69202,14.553285 -4.76352,-1.586597 -0.27566,-41.894825 2.9565,-34.297565 4.45785,10.478263 16.72713,16.067511 25.73552,19.74428 z"
       id="path4"
       sodipodi:nodetypes="cssc" />
    <path
       style="fill:#ffb41a;stroke-width:0.437092;stroke-linecap:square;stroke-miterlimit:12.9;fill-opacity:1"
       d="M 110.4064,114.27195 C 93.565259,101.43938 80.87735,106.16894 79.872415,104.13755 77.646117,99.637336 109.43481,74.450571 106.31396,82.094233 c -4.30431,10.542261 0.3626,23.191167 4.09244,32.177717 z"
       id="path5"
       sodipodi:nodetypes="cssc" />
    <path
       style="fill:#ffb41a;stroke-width:0.437092;stroke-linecap:square;stroke-miterlimit:12.9;fill-opacity:1"
       d="m 69.497577,130.76786 c -6.028221,-20.29678 -19.063254,-23.9628 -18.676339,-26.19589 0.857154,-4.947085 41.383503,-6.531335 34.354359,-2.20048 -9.694707,5.9732 -13.388295,18.93979 -15.67802,28.39637 z"
       id="path6"
       sodipodi:nodetypes="cssc" />
    <path
       style="fill:#ffb41a;stroke-width:0.437092;stroke-linecap:square;stroke-miterlimit:12.9;fill-opacity:1"
       d="m 21.008704,112.20675 c 11.950166,-17.478315 6.574845,-29.906425 8.551895,-31.014423 4.379874,-2.454622 31.166943,27.997743 23.373004,25.273823 -10.749527,-3.75687 -23.141894,1.55389 -31.924899,5.7406 z"
       id="path7"
       sodipodi:nodetypes="cssc" />
    <path
       style="fill:#ffb41a;stroke-width:0.437092;stroke-linecap:square;stroke-miterlimit:12.9;fill-opacity:1"
       d="M 3.9755872,65.187194 C 24.904064,61.978272 30.31053,49.563681 32.470158,50.251014 37.254496,51.773675 33.306789,92.138388 29.973187,84.58509 25.375427,74.16746 13.032404,68.743005 3.9755872,65.187194 Z"
       id="path8"
       sodipodi:nodetypes="cssc" />
    <path
       style="fill:#ffb41a;stroke-width:0.437092;stroke-linecap:square;stroke-miterlimit:12.9;fill-opacity:1"
       d="M 24.572569,20.070821 C 41.584036,32.676728 54.207476,27.777693 55.239522,29.795445 57.525881,34.26545 26.077304,59.875627 29.095521,52.190856 33.258278,41.591904 28.42241,29.006621 24.572569,20.070821 Z"
       id="path9"
       sodipodi:nodetypes="cssc" />
    <circle
       style="fill:#ffffff;stroke-width:0.536556;stroke-linecap:square;stroke-miterlimit:12.9"
       id="path1"
       cx="68.091888"
       cy="67.066628"
       r="40.287788" />
  </g>
</svg>
